<svg width="64" height="64" viewBox="0 0 64 64" fill="none" xmlns="http://www.w3.org/2000/svg">
<path fill-rule="evenodd" clip-rule="evenodd" d="M63.3 32C63.3 49.2999 49.3 63.2999 32 63.2999C14.7 63.2999 0.700012 49.2999 0.700012 32C0.700012 14.7 14.7 0.699951 32 0.699951C49.3 0.699951 63.3 14.7 63.3 32ZM32 2.59995C15.7 2.59995 2.60001 15.7 2.60001 32C2.60001 48.2999 15.8 61.4 32 61.4C48.3 61.4 61.4 48.2 61.4 32C61.4 15.7 48.3 2.59995 32 2.59995Z" fill="url(#paint0_linear_2_275)"/>
<path fill-rule="evenodd" clip-rule="evenodd" d="M32 2.59998C15.7 2.59998 2.59998 15.7 2.59998 32C2.59998 48.3 15.8 61.4 32 61.4C48.3 61.4 61.4 48.2 61.4 32C61.4 15.7 48.3 2.59998 32 2.59998ZM32 59.5C16.8 59.5 4.49998 47.2 4.49998 32C4.49998 16.8 16.8 4.49998 32 4.49998C47.2 4.49998 59.5 16.8 59.5 32C59.5 47.2 47.2 59.5 32 59.5Z" fill="url(#paint1_linear_2_275)"/>
<path opacity="0.4" fill-rule="evenodd" clip-rule="evenodd" d="M32 63.3C49.3 63.3 63.3 49.3 63.3 32C63.3 14.7 49.3 0.7 32 0.7C14.7 0.7 0.7 14.7 0.7 32C0.7 49.3 14.7 63.3 32 63.3ZM32 0C49.6 0 64 14.4 64 32C64 49.6 49.6 64 32 64C14.4 64 0 49.6 0 32C0 14.4 14.4 0 32 0Z" fill="url(#paint2_linear_2_275)"/>
<path fill-rule="evenodd" clip-rule="evenodd" d="M2.20001 32.1C2.20001 15.7 15.5 2.19995 32 2.19995C48.5 2.19995 61.8 15.6 61.8 32.1C61.8 48.5 48.5 61.7999 32 61.7999C15.5 61.7999 2.20001 48.5 2.20001 32.1ZM11.5 11.5C6.20001 16.8 2.90001 24.1 2.90001 32.1C2.90001 40.1 6.20001 47.4 11.4 52.6C16.7 57.8 24 61.1 32 61.1C40 61.1 47.3 57.9 52.5 52.6C57.8 47.4 61 40.1 61 32.1C61 24.1 57.7 16.8 52.5 11.5C47.3 6.19995 40 2.89995 32 2.89995C24 2.89995 16.7 6.19995 11.5 11.5Z" fill="white"/>
<path opacity="0.4" fill-rule="evenodd" clip-rule="evenodd" d="M32 59.6C24.6 59.6 17.7 56.7 12.5 51.5C7.30002 46.3 4.40002 39.4 4.40002 32C4.40002 24.6 7.30002 17.7 12.5 12.5C17.7 7.30002 24.6 4.40002 32 4.40002C39.4 4.40002 46.3 7.30002 51.5 12.5C56.7 17.7 59.6 24.6 59.6 32C59.6 39.4 56.7 46.3 51.5 51.5C46.3 56.7 39.4 59.6 32 59.6ZM32 58.8C39.1 58.8 45.9 56 50.9 51C56 45.9 58.7 39.2 58.7 32.1C58.7 25 55.9 18.2 50.9 13.2C45.8 8.10002 39.1 5.40002 32 5.40002C24.9 5.40002 18.1 8.20002 13.1 13.2C8.00002 18.1 5.20002 24.9 5.20002 32C5.20002 39.1 8.00002 45.9 13 50.9C18.1 56 24.9 58.8 32 58.8Z" fill="url(#paint3_linear_2_275)"/>
<path fill-rule="evenodd" clip-rule="evenodd" d="M56.3 45C55.8 44.6 36.5 29.3 36.5 29.3L32 3.59998C31.7 3.69998 31.3 3.99998 31.1 4.39998L27.9 29.4L7.99999 44.7C7.99999 44.7 7.59999 45.2 7.39999 45.5C7.29999 45.7 7.29999 46 7.29999 46.3L31.9 36.2L56.5 46.3C56.7 45.8 56.5 45.3 56.3 45Z" fill="white"/>
<path fill-rule="evenodd" clip-rule="evenodd" d="M32.2 32.8L32 37.4L54.6 46.5C55.4 46.9 56 46.7 56.6 46.3L32.5 32.7C32.4 32.6 32.2 32.7 32.2 32.8Z" fill="#565F64"/>
<path fill-rule="evenodd" clip-rule="evenodd" d="M32.2 32.8C32.2 32.8 33.5 35.1 35 36.7C37.1 39 39.9 40.6 39.9 40.6L54.6 46.5C55.4 46.9 56 46.7 56.6 46.3L32.5 32.7C32.4 32.6 32.2 32.7 32.2 32.8Z" fill="url(#paint4_linear_2_275)"/>
<path fill-rule="evenodd" clip-rule="evenodd" d="M56.5 45.4C56.5 45.3 56.4 45.2 56.3 45L35.7 29.9L32.9 31.7C32.9 31.7 33.1 31.8 33.2 31.7C33.5 31.6 34.1 31.5 34.7 31.7C35.2 31.9 56.5 45.5 56.5 45.5C56.5 45.5 56.5 45.5 56.5 45.4Z" fill="#A4AAAE" fill-opacity="0.6"/>
<path fill-rule="evenodd" clip-rule="evenodd" d="M55.8 44.5L36.6 29.3L35.7 29.9L56.3 45.1C56.2 44.9 56 44.7 55.8 44.5Z" fill="#333E46"/>
<path fill-rule="evenodd" clip-rule="evenodd" d="M32.5 31.3C32.4 31.4 32.4 31.4 32.4 31.4C32.4 31.4 32.4 31.6 32.6 31.5C32.7 31.4 35.6 29.9 36.6 29.3L33.1 5.29995C33 4.39995 32.6 3.99995 31.9 3.69995L32.3 31.5L32.5 31.3Z" fill="#565F64"/>
<path fill-rule="evenodd" clip-rule="evenodd" d="M30.8 5.29995V6.59995L28.6 28.7C28.6 29 28.7 29.2999 29 29.5L30.3 30.5L31.2 6.09995L31.3 4.19995C31 4.39995 30.9 4.79995 30.8 5.29995Z" fill="#A4AAAE" fill-opacity="0.6"/>
<path fill-rule="evenodd" clip-rule="evenodd" d="M29.6 30.9L28.4 29.9L8.10002 44.6C8.10002 44.6 7.50002 45 7.40002 45.4L8.10002 45L29.4 31.6C29.8 31.4 29.9 31.2 29.6 30.9Z" fill="#A4AAAE" fill-opacity="0.6"/>
<path fill-rule="evenodd" clip-rule="evenodd" d="M31.7 32.8C31.7 32.7 31.6 32.6 31.5 32.7L7.29999 46.4C7.89999 46.8 8.49999 46.9 9.29999 46.6L31.9 37.5L31.7 32.8Z" fill="#565F64"/>
<path fill-rule="evenodd" clip-rule="evenodd" d="M32.4 31.4L32.5 31.3C32.4 31.4 32.4 31.4 32.4 31.4C32.4 31.4 32.4 31.5 32.5 31.5H32.6C32.7 31.4 35.6 29.9 36.6 29.3L36.2 26.4L33.1 5.30002C33.1 4.90002 33 4.60002 32.8 4.40002C32.8 4.40002 34.3 24.6 34.3 26.8C34.3 29.7 32.4 31.4 32.4 31.4Z" fill="url(#paint5_linear_2_275)"/>
<path fill-rule="evenodd" clip-rule="evenodd" d="M31.7 32.8C31.7 32.7 31.6 32.6 31.5 32.7L7.29999 46.4C7.89999 46.8 8.49999 46.9 9.29999 46.6L31.9 37.5L31.7 32.8Z" fill="url(#paint6_linear_2_275)"/>
<path opacity="0.8" fill-rule="evenodd" clip-rule="evenodd" d="M9.30001 46.5L31.9 37.4L31.7 33C31.3 34.2 30.6 35.5 28.7 36.5C27.3 37.3 13.9 43.9 9.10001 46.2C8.80001 46.4 8.40001 46.5 8.20001 46.6C8.60001 46.8 8.90001 46.7 9.30001 46.5Z" fill="url(#paint7_linear_2_275)"/>
<path fill-rule="evenodd" clip-rule="evenodd" d="M32.5 31.3C32.4 31.4 32.4 31.4 32.4 31.4C32.4 31.4 32.4 31.6 32.6 31.5C32.7 31.4 35.6 29.9 36.6 29.3L33.1 5.29995C33 4.39995 32.6 3.99995 31.9 3.69995L32.3 31.5L32.5 31.3Z" fill="url(#paint8_linear_2_275)"/>
<path fill-rule="evenodd" clip-rule="evenodd" d="M32.5 31.3C32.4 31.4 32.4 31.4 32.4 31.4C32.4 31.4 32.4 31.6 32.6 31.5C32.7 31.4 35.6 29.9 36.6 29.3L33.1 5.29995C33 4.39995 32.6 3.99995 31.9 3.69995L32.3 31.5L32.5 31.3Z" fill="url(#paint9_linear_2_275)"/>
<path fill-rule="evenodd" clip-rule="evenodd" d="M5.10001 44.4C4.40001 42.8 0.400012 35 4.80001 20H3.10001C2.20001 23 1.50001 24.8 1.10001 27.5C1.10001 27.5 0.900012 28.5 0.800012 29.6C0.700012 30.7 0.700012 31.3 0.700012 32C0.700012 38 2.20001 41.5 2.20001 41.5C3.80001 46.5 6.60001 51 10.4 54.4C13.7 57.3 18.8 59.5 23 60.3C22.3 60.2 10.3 55.1 5.10001 44.4Z" fill="url(#paint10_linear_2_275)"/>
<path fill-rule="evenodd" clip-rule="evenodd" d="M32.4 32.6H31.5C31.6 32.6 31.7 32.6 31.7 32.7L31.9 37.3H32L32.2 32.7C32.2 32.6 32.3 32.5 32.4 32.6Z" fill="url(#paint11_linear_2_275)"/>
<path fill-rule="evenodd" clip-rule="evenodd" d="M42 2.30005C52.5 6.30005 62.4 17.3 62.4 31.2C62.4 48 49 61.7001 32 61.7001V63.3C49 63.3 63.3 49.3 63.3 32C63.3 18.2 54.5 6.60005 42 2.30005Z" fill="url(#paint12_linear_2_275)"/>
<path fill-rule="evenodd" clip-rule="evenodd" d="M58.8 20.2C51.8 4.09998 36 3.19998 35.1 3.09998C35.1 3.09998 35.1 3.09998 35 3.09998C47.1 5.29998 54.8 13.2 57.5 21.5V21.6C58.7 24.8 59.3 28.2 59.4 31.9C59.5 35.4 58.7 39.3 57.2 42.9C57.1 43.4 57 44 56.9 44H58.5C63.3 35 61.2 25.9 58.8 20.2Z" fill="url(#paint13_linear_2_275)"/>
<path fill-rule="evenodd" clip-rule="evenodd" d="M2.20001 32.1C2.20001 15.7 15.5 2.19995 32 2.19995C48.5 2.19995 61.8 15.6 61.8 32.1C61.8 48.5 48.5 61.7999 32 61.7999C15.5 61.7999 2.20001 48.5 2.20001 32.1ZM11.5 11.5C6.20001 16.8 2.90001 24.1 2.90001 32.1C2.90001 40.1 6.20001 47.4 11.4 52.6C16.7 57.8 24 61.1 32 61.1C40 61.1 47.3 57.9 52.5 52.6C57.8 47.4 61 40.1 61 32.1C61 24.1 57.7 16.8 52.5 11.5C47.3 6.19995 40 2.89995 32 2.89995C24 2.89995 16.7 6.19995 11.5 11.5Z" fill="#FBFBFB"/>
<path fill-rule="evenodd" clip-rule="evenodd" d="M7.90002 44.8L28.3 30.1C29.4 30.7 31.2 31.5 31.4 31.5C31.6 31.6 31.6 31.4 31.6 31.4L29.1 29.3C28.8 29.1 28.7 28.8 28.7 28.5L31.1 4.40002C31 4.50002 31 4.70002 30.9 4.80002C30.8 5.00002 30.8 5.10002 30.8 5.30002L27.3 29.4L8.10002 44.5C8.00002 44.6 7.90002 44.7 7.90002 44.8Z" fill="#333F47"/>
<defs>
<linearGradient id="paint0_linear_2_275" x1="-12.1" y1="35.9" x2="35.9" y2="76.1" gradientUnits="userSpaceOnUse">
<stop stop-color="white"/>
<stop offset="0.1" stop-color="#E7E8E6"/>
<stop offset="0.1" stop-color="#CDD0D0"/>
<stop offset="0.2" stop-color="#B5BBBD"/>
<stop offset="0.2" stop-color="#A5ACAF"/>
<stop offset="0.3" stop-color="#9BA3A7"/>
<stop offset="0.3" stop-color="#98A0A4"/>
<stop offset="0.4" stop-color="#828A8F"/>
<stop offset="0.5" stop-color="#667075"/>
<stop offset="0.6" stop-color="#535C63"/>
<stop offset="0.7" stop-color="#475158"/>
<stop offset="0.8" stop-color="#434D54"/>
<stop offset="1" stop-color="#475157"/>
</linearGradient>
<linearGradient id="paint1_linear_2_275" x1="-9.40002" y1="35.6" x2="35.6" y2="73.4" gradientUnits="userSpaceOnUse">
<stop stop-color="#0B1F2A"/>
<stop offset="0.2" stop-color="#333F47"/>
<stop offset="0.5" stop-color="#777F84"/>
<stop offset="0.5" stop-color="#81898D"/>
<stop offset="0.7" stop-color="#B3B8B8"/>
<stop offset="0.8" stop-color="#D2D5D3"/>
<stop offset="0.8" stop-color="#DEE0DD"/>
<stop offset="1" stop-color="#FBFBFB"/>
</linearGradient>
<linearGradient id="paint2_linear_2_275" x1="73.0726" y1="51.1571" x2="51.1726" y2="-9.0429" gradientUnits="userSpaceOnUse">
<stop stop-color="#E1E3E1"/>
<stop offset="0.1" stop-color="#C1C5C4"/>
<stop offset="0.3" stop-color="#9BA1A2"/>
<stop offset="0.5" stop-color="#7D8487"/>
<stop offset="0.7" stop-color="#687074" stop-opacity="0.01"/>
<stop offset="0.8" stop-color="#5B6469" stop-opacity="0.01"/>
<stop offset="1" stop-color="#576065" stop-opacity="0.01"/>
</linearGradient>
<linearGradient id="paint3_linear_2_275" x1="-5.69998" y1="21.9" x2="21.9" y2="69.7" gradientUnits="userSpaceOnUse">
<stop stop-color="#E1E3E1"/>
<stop offset="0.1" stop-color="#C1C5C4"/>
<stop offset="0.3" stop-color="#9BA1A2"/>
<stop offset="0.5" stop-color="#7D8487"/>
<stop offset="0.7" stop-color="#687074" stop-opacity="0.01"/>
<stop offset="0.8" stop-color="#5B6469" stop-opacity="0.01"/>
<stop offset="1" stop-color="#576065" stop-opacity="0.01"/>
</linearGradient>
<linearGradient id="paint4_linear_2_275" x1="42.0703" y1="38.9102" x2="41.4616" y2="41.9302" gradientUnits="userSpaceOnUse">
<stop stop-color="#27343C"/>
<stop offset="1" stop-color="#00111E" stop-opacity="0.01"/>
</linearGradient>
<linearGradient id="paint5_linear_2_275" x1="39.9487" y1="20.0667" x2="36.9794" y2="19.9521" gradientUnits="userSpaceOnUse">
<stop offset="0.1" stop-color="#02131F"/>
<stop offset="0.9" stop-color="#02131F" stop-opacity="0.01"/>
</linearGradient>
<linearGradient id="paint6_linear_2_275" x1="30.9544" y1="35.195" x2="27.9644" y2="37.7895" gradientUnits="userSpaceOnUse">
<stop offset="0.2" stop-color="#02131F"/>
<stop offset="0.9" stop-color="#02131F" stop-opacity="0.01"/>
</linearGradient>
<linearGradient id="paint7_linear_2_275" x1="22.0966" y1="41.7265" x2="21.8888" y2="40.174" gradientUnits="userSpaceOnUse">
<stop stop-color="#02131F"/>
<stop offset="0.1" stop-color="#02131F"/>
<stop offset="1" stop-color="#02131F" stop-opacity="0.01"/>
</linearGradient>
<linearGradient id="paint8_linear_2_275" x1="35.5662" y1="7.1345" x2="32.1649" y2="7.14592" gradientUnits="userSpaceOnUse">
<stop offset="0.3" stop-color="#02131F"/>
<stop offset="0.3" stop-color="#02131F"/>
<stop offset="0.8" stop-color="#02131F" stop-opacity="0.01"/>
</linearGradient>
<linearGradient id="paint9_linear_2_275" x1="35.6747" y1="10.291" x2="33.3736" y2="10.2995" gradientUnits="userSpaceOnUse">
<stop offset="0.4" stop-color="#27343C"/>
<stop offset="1" stop-color="#3B474E" stop-opacity="0.01"/>
</linearGradient>
<linearGradient id="paint10_linear_2_275" x1="-4.85445" y1="58.1101" x2="24.9595" y2="63.378" gradientUnits="userSpaceOnUse">
<stop stop-color="#24303A" stop-opacity="0.01"/>
<stop stop-color="#25323B" stop-opacity="0.01"/>
<stop offset="0.1" stop-color="#27343C"/>
</linearGradient>
<linearGradient id="paint11_linear_2_275" x1="32.5062" y1="37.4" x2="32.5062" y2="32.6" gradientUnits="userSpaceOnUse">
<stop offset="0.3" stop-color="#A5ABAF"/>
<stop offset="1" stop-color="#A5ABAF" stop-opacity="0.01"/>
</linearGradient>
<linearGradient id="paint12_linear_2_275" x1="32.05" y1="2.30005" x2="32.05" y2="63.3" gradientUnits="userSpaceOnUse">
<stop stop-color="#DEE0DD"/>
<stop stop-color="#C5C9C7"/>
<stop stop-color="#9EA4A5"/>
<stop stop-color="#82898C"/>
<stop stop-color="#71797D"/>
<stop stop-color="#6B7378"/>
<stop offset="0.2" stop-color="#333F47"/>
<stop offset="0.5" stop-color="#27343C"/>
<stop offset="0.8" stop-color="#333F47"/>
<stop offset="1" stop-color="#434D54"/>
</linearGradient>
<linearGradient id="paint13_linear_2_275" x1="50.912" y1="-2.3611" x2="32.2719" y2="9.02134" gradientUnits="userSpaceOnUse">
<stop offset="0.7" stop-color="#27343C"/>
<stop offset="0.7" stop-color="#2B373F"/>
<stop offset="0.7" stop-color="#36424A"/>
<stop offset="0.7" stop-color="#49545B"/>
<stop offset="0.8" stop-color="#646D73" stop-opacity="0.01"/>
<stop offset="0.8" stop-color="#868D92" stop-opacity="0.01"/>
<stop offset="0.8" stop-color="#B0B5B8" stop-opacity="0.01"/>
<stop offset="0.8" stop-color="#E1E3E4" stop-opacity="0.01"/>
<stop offset="0.8" stop-color="white" stop-opacity="0.01"/>
</linearGradient>
</defs>
</svg>
