<svg width="136" height="16" viewBox="0 0 136 16" fill="none" xmlns="http://www.w3.org/2000/svg">
<rect x="87.06" y="8.71997" width="5.09" height="1.21" fill="white"/>
<path fill-rule="evenodd" clip-rule="evenodd" d="M3.03 1.57L2.54 13.32V13.56C2.54 14.56 2.78 14.77 4.48 14.89V15.37C3.75656 15.2844 3.02846 15.2443 2.3 15.25C1.53162 15.2437 0.763553 15.2837 0 15.37V14.9C1.57 14.78 1.82 14.66 1.82 13.33L2.3 2.18V2.06C2.3 0.969995 1.94 0.849995 0.36 0.729995V0.119995C0.962015 0.212913 1.571 0.253066 2.18 0.239995C2.90874 0.260447 3.63791 0.220309 4.36 0.119995L8.6 11.62L12.84 0.119995C13.5627 0.214015 14.2914 0.254126 15.02 0.239995C15.6257 0.252484 16.2313 0.212333 16.83 0.119995V0.729995C15.26 0.849995 14.89 1.09 14.89 2.06V2.18L15.13 13.32C15.13 14.53 15.37 14.77 16.95 14.89V15.37C16.0261 15.2816 15.0981 15.2415 14.17 15.25C13.2418 15.2393 12.3138 15.2794 11.39 15.37V14.9C12.96 14.78 13.33 14.54 13.33 13.45V13.33L13.08 1.57L9.32 11.62L9.08 12.35L8.7 13.2L8.46 14.05L8.22 14.78H7.87L7.63 14.05L7.27 13.2L6.91 12.35L6.79 11.62L3.03 1.57Z" fill="white"/>
<path fill-rule="evenodd" clip-rule="evenodd" d="M22.89 14.77C20.83 14.77 19.98 13.2 19.89 9.67998H26.67C26.67 6.16998 25.22 4.34998 22.55 4.34998C19.88 4.34998 18.19 6.52998 18.19 10.04C18.19 13.55 19.89 15.61 22.79 15.61C24.97 15.61 26.42 14.28 26.79 11.86H25.94C25.58 13.8 24.61 14.77 22.94 14.77H22.89ZM19.98 8.83998C20.22 6.29998 21.07 4.83998 22.52 4.83998C23.97 4.83998 24.7 6.04998 24.82 8.83998H19.98Z" fill="white"/>
<path fill-rule="evenodd" clip-rule="evenodd" d="M28.09 5.20999V4.71999C29.102 4.64671 30.1057 4.48611 31.09 4.23999C31.21 5.08999 31.21 5.44999 31.33 6.17999V6.41999C31.6593 5.21779 32.7436 4.37803 33.99 4.35999C34.4939 4.32369 34.99 4.49963 35.3584 4.84527C35.7269 5.19092 35.9341 5.67482 35.93 6.17999C35.9553 6.46042 35.8613 6.73854 35.6709 6.94603C35.4806 7.15351 35.2116 7.27113 34.93 7.26999C34.45 7.26999 33.93 6.90999 33.93 6.53999V5.80999C33.93 5.44999 33.69 5.32999 33.2 5.32999C31.99 5.32999 31.26 6.77999 31.26 8.95999V13.68C31.26 14.68 31.5 14.89 32.83 14.89V15.37C31.9866 15.2777 31.1383 15.2377 30.29 15.25C29.4417 15.2377 28.5934 15.2777 27.75 15.37V14.9C29.08 14.78 29.32 14.66 29.32 13.69V6.29999C29.32 5.29999 29.2 5.20999 27.99 5.20999H28.09Z" fill="white"/>
<path fill-rule="evenodd" clip-rule="evenodd" d="M44.44 4.12V7.9H43.96C43.59 5.9 42.7 4.96 41.29 4.96C39.59 4.96 38.63 6.78 38.63 10.05C38.63 13.32 39.48 14.77 41.29 14.77C42.74 14.77 43.47 13.77 43.83 11.77H44.83C44.59 14.19 43.26 15.52 41.2 15.52C38.54 15.52 36.84 13.34 36.84 9.95C36.84 6.56 38.66 4.26 41.32 4.26C42.1997 4.22148 43.0482 4.59036 43.62 5.26L44.2 4H44.44V4.12Z" fill="white"/>
<path fill-rule="evenodd" clip-rule="evenodd" d="M51.1 14.77C49.04 14.77 48.19 13.2 48.1 9.67998H54.88C54.88 6.16998 53.43 4.34998 50.76 4.34998C48.09 4.34998 46.4 6.52998 46.4 10.04C46.4 13.55 48.1 15.61 51 15.61C53.18 15.61 54.63 14.28 55 11.86H54.15C53.79 13.8 52.82 14.77 51.15 14.77H51.1ZM48.19 8.83998C48.43 6.29998 49.28 4.83998 50.73 4.83998C52.18 4.83998 52.91 6.04998 53.03 8.83998H48.19Z" fill="white"/>
<path fill-rule="evenodd" clip-rule="evenodd" d="M65.39 12.96V0C64.2735 0.272317 63.1414 0.476031 62 0.61V0.97C63.45 0.97 63.57 1.09 63.57 2.3V6.3C62.7 4.96 62.12 4.48 60.91 4.48C58.49 4.48 56.79 6.78 56.79 10.05C56.79 13.32 58.49 15.62 61.03 15.62C62.2485 15.663 63.362 14.934 63.81 13.8C63.8713 14.4168 63.9918 15.0263 64.17 15.62C65.0379 15.3693 65.9292 15.2085 66.83 15.14H67.19V14.78C65.49 14.54 65.37 14.42 65.37 12.96M61.15 14.9C59.58 14.9 58.61 13.2 58.61 9.9C58.61 6.6 59.46 5.06 61.03 5.06C62.6 5.06 63.57 6.76 63.57 10.15C63.7 13.32 62.84 14.9 61.15 14.9Z" fill="white"/>
<path fill-rule="evenodd" clip-rule="evenodd" d="M72.77 14.77C70.71 14.77 69.86 13.2 69.77 9.67998H76.55C76.55 6.16998 75.1 4.34998 72.43 4.34998C69.76 4.34998 68.07 6.52998 68.07 10.04C68.07 13.55 69.7 15.62 72.7 15.62C74.88 15.62 76.33 14.29 76.7 11.87H75.8C75.32 13.81 74.35 14.78 72.8 14.78L72.77 14.77ZM69.7 8.83998C69.94 6.29998 70.79 4.83998 72.24 4.83998C73.69 4.83998 74.42 6.04998 74.54 8.83998H69.7Z" fill="white"/>
<path fill-rule="evenodd" clip-rule="evenodd" d="M78.34 15.62V11.75H78.82C79.18 13.81 80.15 14.75 81.73 14.75C82.3131 14.8028 82.892 14.611 83.3281 14.2203C83.7643 13.8297 84.0185 13.2754 84.03 12.69C84.03 11.96 83.55 11.36 82.46 10.87L81.61 10.51L80.76 10.15C79.06 9.41997 78.58 8.69997 78.58 7.48997C78.6039 6.6325 78.982 5.82325 79.6244 5.25477C80.2668 4.68628 81.116 4.40939 81.97 4.48997C82.7935 4.49074 83.5968 4.74567 84.27 5.21997L84.63 4.21997H84.99V7.74997H84.51C84.27 5.92997 83.51 5.08997 82.09 5.08997C81.5428 5.05447 81.0041 5.23969 80.5945 5.60426C80.1848 5.96882 79.9383 6.48231 79.91 7.02997C79.91 7.87997 80.27 8.23997 82.33 9.08997L83.33 9.44997C85.03 10.18 85.63 10.9 85.63 12.23C85.6112 13.1552 85.2104 14.0314 84.5229 14.6508C83.8353 15.2701 82.9221 15.5775 82 15.5C81.0145 15.5408 80.0545 15.1799 79.34 14.5L78.86 15.59L78.34 15.62Z" fill="white"/>
<path fill-rule="evenodd" clip-rule="evenodd" d="M102.8 3.90004C102.824 2.77798 102.334 1.70649 101.47 0.990045C100.559 0.329313 99.4406 0.0202981 98.32 0.120045H92.39V0.730045C93.96 0.850045 94.21 1.09004 94.21 2.30004V13.2C94.21 14.41 94.09 14.53 92.39 14.77V15.25H98.08C99.3107 15.3475 100.54 15.0497 101.59 14.4C102.767 13.6177 103.49 12.3126 103.53 10.9C103.555 9.72562 103.016 8.61036 102.08 7.90004C101.553 7.49206 100.923 7.23925 100.26 7.17004C101.788 6.84106 102.859 5.46208 102.8 3.90004ZM96.14 0.970045H98.08C100.02 0.970045 100.86 1.97004 100.86 3.97004C100.915 4.83822 100.656 5.6973 100.13 6.39004C99.65 7.00004 99.04 7.12004 97.71 7.12004H96.14V0.970045ZM98.32 7.75004C99.1926 7.65217 100.067 7.91598 100.74 8.48004C101.326 9.19321 101.629 10.0976 101.59 11.02C101.59 13.32 100.5 14.53 98.44 14.53H97.59C96.38 14.53 96.14 14.41 96.14 13.32V7.75004H98.32Z" fill="white"/>
<path fill-rule="evenodd" clip-rule="evenodd" d="M110.19 14.77C108.13 14.77 107.28 13.2 107.19 9.67998H113.97C113.97 6.16998 112.52 4.34998 109.85 4.34998C107.18 4.34998 105.49 6.52998 105.49 10.04C105.49 13.55 107.19 15.61 110.09 15.61C112.27 15.61 113.72 14.28 114.09 11.86H113.24C112.76 13.8 111.79 14.77 110.24 14.77H110.19ZM107.24 8.83998C107.48 6.29998 108.33 4.83998 109.78 4.83998C111.23 4.83998 111.96 6.04998 112.08 8.83998H107.24Z" fill="white"/>
<path fill-rule="evenodd" clip-rule="evenodd" d="M115.03 5.32999V4.83999C116.062 4.75184 117.073 4.50563 118.03 4.10999C118.184 4.78597 118.265 5.47667 118.27 6.16999C118.865 5.06364 120.014 4.36698 121.27 4.34999C122.538 4.3258 123.706 5.03446 124.27 6.16999C124.563 6.8166 124.71 7.52003 124.7 8.22999V13.68C124.7 14.68 124.94 14.89 126.27 14.89V15.37C125.467 15.2806 124.658 15.2406 123.85 15.25C123.042 15.2353 122.233 15.2754 121.43 15.37V14.9C122.64 14.9 123 14.66 123 13.69V8.22999C123 6.28999 122.39 5.44999 120.94 5.44999C119.49 5.44999 118.64 6.44999 118.64 8.22999V13.68C118.64 14.53 118.88 14.77 120.09 14.89V15.37C118.481 15.2088 116.859 15.2088 115.25 15.37V14.9C116.58 14.78 116.82 14.66 116.82 13.69V6.41999C116.82 5.41999 116.7 5.32999 115.49 5.32999H115.01" fill="white"/>
<path fill-rule="evenodd" clip-rule="evenodd" d="M127.14 15.26L133.32 5.20998H130.54C129.09 5.20998 128.72 5.56998 127.88 7.50998H127.4L127.88 4.59998H135.63L129.45 14.65H132.11C133.68 14.65 134.29 14.04 135.02 11.99H135.5L134.89 15.26H127.14Z" fill="white"/>
</svg>
