<svg width="26" height="22" viewBox="0 0 26 22" fill="none" xmlns="http://www.w3.org/2000/svg">
<path fill-rule="evenodd" clip-rule="evenodd" d="M25.8 2.5C24.8 2.9 23.8 3.2 22.8 3.3C23.9 2.6 24.7 1.6 25.1 0.4C24.1 1 22.9 1.4 21.7 1.7C20.7 0.7 19.4 0 17.8 0C14.9 0 12.5 2.4 12.5 5.3C12.5 5.7 12.5 6.1 12.6 6.5C8.3 6.3 4.4 4.2 1.8 1C1.3 1.8 1.1 2.7 1.1 3.7C1.1 5.5 2 7.1 3.4 8.1C2.6 8 1.8 7.8 1 7.4C1 7.4 1 7.4 1 7.5C1 10.1 2.8 12.2 5.3 12.7C4.9 12.8 4.4 12.9 3.9 12.9C3.6 12.9 3.2 12.9 2.9 12.8C3.6 14.9 5.5 16.4 7.9 16.5C6.1 17.9 3.8 18.8 1.3 18.8C0.9 18.8 0.5 18.8 0 18.7C2.3 20.2 5.1 21.1 8.1 21.1C17.9 21.1 23.2 13 23.2 6C23.2 5.8 23.2 5.5 23.2 5.3C24.2 4.5 25.1 3.6 25.8 2.5Z" fill="#999999"/>
</svg>
