<svg width="31" height="22" viewBox="0 0 31 22" fill="none" xmlns="http://www.w3.org/2000/svg">
<path fill-rule="evenodd" clip-rule="evenodd" d="M30.7 4.7C30.7 4.7 30.4 2.6 29.5 1.6C28.3 0.4 27 0.4 26.4 0.3C22 0 15.5 0 15.5 0C15.5 0 9 0 4.7 0.3C4 0.4 2.7 0.4 1.5 1.6C0.6 2.6 0.3 4.7 0.3 4.7C0.3 4.7 0 7.2 0 9.7V12.1C0 14.6 0.3 17.1 0.3 17.1C0.3 17.1 0.6 19.2 1.5 20.2C2.7 21.4 4.2 21.4 4.9 21.5C7.4 21.7 15.4 21.8 15.4 21.8C15.4 21.8 21.9 21.8 26.3 21.5C26.9 21.4 28.2 21.4 29.4 20.2C30.3 19.3 30.6 17.1 30.6 17.1C30.6 17.1 30.9 14.6 30.9 12.1V9.7C31 7.2 30.7 4.7 30.7 4.7ZM12.3 14.9V6.2L20.7 10.6L12.3 14.9Z" fill="#999999"/>
</svg>
